<?xml version="1.0" encoding="utf-8"?>
<!-- Generator: Adobe Illustrator 21.0.2, SVG Export Plug-In . SVG Version: 6.00 Build 0)  -->
<svg version="1.1" id="Layer_1" xmlns="http://www.w3.org/2000/svg" xmlns:xlink="http://www.w3.org/1999/xlink" x="0px" y="0px"
	 viewBox="0 0 256 64" style="enable-background:new 0 0 256 64;" xml:space="preserve">
<metadata><?xpacket begin="﻿" id="W5M0MpCehiHzreSzNTczkc9d"?>
<x:xmpmeta xmlns:x="adobe:ns:meta/" x:xmptk="Adobe XMP Core 5.6-c137 79.159768, 2016/08/11-13:24:42        ">
   <rdf:RDF xmlns:rdf="http://www.w3.org/1999/02/22-rdf-syntax-ns#">
      <rdf:Description rdf:about=""/>
   </rdf:RDF>
</x:xmpmeta>
                                                                                                    
                                                                                                    
                                                                                                    
                                                                                                    
                                                                                                    
                                                                                                    
                                                                                                    
                                                                                                    
                                                                                                    
                                                                                                    
                                                                                                    
                                                                                                    
                                                                                                    
                                                                                                    
                                                                                                    
                                                                                                    
                                                                                                    
                                                                                                    
                                                                                                    
                                                                                                    
                           
<?xpacket end="w"?></metadata>
<style type="text/css">
	.st0{fill:#811519;}
</style>
<g>
	<g>
		<g>
			<path class="st0" d="M64.4,45.6c7.7-1,7.8-2.9,7.9-9.6V13.5C72.1,6.9,72.1,5,64.4,4V3h21.5v1C78.2,5,78,6.9,78,13.5v21
				c0,3.2,0,6.6,1,9.7l7.8,0.6c9.7,0.7,11.3-2.3,16.3-10.5l0.8,0.4l-3.7,11.9H64.4V45.6z"/>
			<path class="st0" d="M103.3,46.6v-1c4.7-0.7,4.9-1.5,5-6.5V26.9c0-2.7,0.1-3.5-3.9-5.8v-0.6l8.1-2.8l0.7,0.3v21.3
				c0,5.3,0.3,5.8,5,6.5v1H103.3z M113.8,5.5c0,1.8-1.5,3.3-3.3,3.3s-3.3-1.5-3.3-3.3c0-1.8,1.5-3.3,3.3-3.3S113.8,3.7,113.8,5.5z"
				/>
			<path class="st0" d="M116.8,20.9l5.2-3c0.1-3.8,0.5-7.2,2.6-10.5c2.4-3.8,6.4-6.9,11.1-6.9c2.5,0,7.4,1,7.4,4.4
				c0,2.1-1.8,2.8-3.5,2.7c-1.5-2.2-4.2-5.1-7.1-5.1c-5.2,0-5.6,8.8-5.6,12.5v3.8h8.3v2.7h-8.3v17.6c0,5.3,0.3,5.8,6.2,6.5v1h-16.2
				v-1c4.9-0.7,5.1-1.5,5.1-6.5V21.6h-5.2V20.9z"/>
			<path class="st0" d="M139.2,30.2c-0.5,6.7,4,12.9,11.3,12.9c3.3,0,5.6-1.5,7.6-4l1,0.7c-2.4,4.2-6.8,7.4-11.8,7.4
				c-7.9,0-13.5-6.5-13.5-14.2c0-8.3,5.8-15.4,14.4-15.4c5.8,0,9.6,3.7,9.9,9.4h-18.6L139.2,30.2z M152,25.3
				c-0.6-2.9-2.4-6.3-5.8-6.3c-3.7,0-5.8,3.6-6.5,6.8L152,25.3z"/>
			<path class="st0" d="M168.6,48.1h-0.6l-10.5-35.8c-1.6-4.7-1.8-6.8-7.1-8.3V3h18.1v1c-7.8,1.2-6.2,4.4-4.7,9.7l6.7,22.8
				l10.1-26.8c-1.3-3.9-3.4-4.9-7.2-5.6V3h18.7v1c-7,1-6.2,4-5,7.7l8.1,25.4l5.1-14.4c1.1-3.2,4-11.2,4-14.3c0-3.1-2.9-3.6-6.4-4.4
				V3h16.7v1c-3.8,0.3-5.8,2.4-7.1,5.8L203,22l-9.4,26h-0.7l-11.4-35.6L168.6,48.1z"/>
			<path class="st0" d="M219.9,30.7c0.5-7-1.3-9.9-6.3-9.9c-4.4,0-4,2.1-4,5.6l-3.2,0.2c-0.5,0-1.5,0.1-1.5-0.6
				c0-1.7,7.1-8.4,12.2-8.4c5.9,0,7.7,4.5,7.7,9.6v9.1c0,5.6-0.4,7,5.6,8.2v1c-2.4,0.7-4.6,1.4-6.5,1.4c-2.7,0-3.7-1.5-4-4
				c-2.1,2.3-4.9,4.4-8.1,4.4c-4.1,0-6.4-3.5-6.4-7.3c0-1,0.1-1.9,0.4-2.8L219.9,30.7z M211.3,36.4c-0.3,0.8-0.4,1.7-0.4,2.6
				c0,2.7,1.5,5.1,4.5,5.1c1.7,0,3.5-1.2,4.6-2.4V32L211.3,36.4z"/>
			<path class="st0" d="M229.5,23.3c-1.2-2.9-1.4-3.5-4.6-4v-1h13.3v1c-4.9,0.3-3.6,3.2-2.3,6.5l6.3,16.3l4-11.5
				c2.9-8.3,3.4-10.6-1.3-11.2v-1H256v1c-2.8,0.3-3.7,1.5-4.9,3.9l-2.7,6.2l-10.2,25.3c-2.4,6-4,7.9-6.6,7.9c-1.7,0-3.1-1.4-3.1-3.2
				c0-1.3,0.8-2.6,2.1-3c0.6,0.4,2.6,1.8,3.4,1.8c1.4,0,2.8-3.8,3.2-4.8l2.2-5L229.5,23.3z"/>
			<path class="st0" d="M64.4,45.6c7.7-1,7.8-2.9,7.9-9.6V13.5C72.1,6.9,72.1,5,64.4,4V3h21.5v1C78.2,5,78,6.9,78,13.5v21
				c0,3.2,0,6.6,1,9.7l7.8,0.6c9.7,0.7,11.3-2.3,16.3-10.5l0.8,0.4l-3.7,11.9H64.4V45.6z"/>
			<path class="st0" d="M103.3,46.6v-1c4.7-0.7,4.9-1.5,5-6.5V26.9c0-2.7,0.1-3.5-3.9-5.8v-0.6l8.1-2.8l0.7,0.3v21.3
				c0,5.3,0.3,5.8,5,6.5v1H103.3z M113.8,5.5c0,1.8-1.5,3.3-3.3,3.3s-3.3-1.5-3.3-3.3c0-1.8,1.5-3.3,3.3-3.3S113.8,3.7,113.8,5.5z"
				/>
			<path class="st0" d="M116.8,20.9l5.2-3c0.1-3.8,0.5-7.2,2.6-10.5c2.4-3.8,6.4-6.9,11.1-6.9c2.5,0,7.4,1,7.4,4.4
				c0,2.1-1.8,2.8-3.5,2.7c-1.5-2.2-4.2-5.1-7.1-5.1c-5.2,0-5.6,8.8-5.6,12.5v3.8h8.3v2.7h-8.3v17.6c0,5.3,0.3,5.8,6.2,6.5v1h-16.2
				v-1c4.9-0.7,5.1-1.5,5.1-6.5V21.6h-5.2V20.9z"/>
			<path class="st0" d="M139.2,30.2c-0.5,6.7,4,12.9,11.3,12.9c3.3,0,5.6-1.5,7.6-4l1,0.7c-2.4,4.2-6.8,7.4-11.8,7.4
				c-7.9,0-13.5-6.5-13.5-14.2c0-8.3,5.8-15.4,14.4-15.4c5.8,0,9.6,3.7,9.9,9.4h-18.6L139.2,30.2z M152,25.3
				c-0.6-2.9-2.4-6.3-5.8-6.3c-3.7,0-5.8,3.6-6.5,6.8L152,25.3z"/>
			<path class="st0" d="M168.6,48.1h-0.6l-10.5-35.8c-1.6-4.7-1.8-6.8-7.1-8.3V3h18.1v1c-7.8,1.2-6.2,4.4-4.7,9.7l6.7,22.8
				l10.1-26.8c-1.3-3.9-3.4-4.9-7.2-5.6V3h18.7v1c-7,1-6.2,4-5,7.7l8.1,25.4l5.1-14.4c1.1-3.2,4-11.2,4-14.3c0-3.1-2.9-3.6-6.4-4.4
				V3h16.7v1c-3.8,0.3-5.8,2.4-7.1,5.8L203,22l-9.4,26h-0.7l-11.4-35.6L168.6,48.1z"/>
			<path class="st0" d="M219.9,30.7c0.5-7-1.3-9.9-6.3-9.9c-4.4,0-4,2.1-4,5.6l-3.2,0.2c-0.5,0-1.5,0.1-1.5-0.6
				c0-1.7,7.1-8.4,12.2-8.4c5.9,0,7.7,4.5,7.7,9.6v9.1c0,5.6-0.4,7,5.6,8.2v1c-2.4,0.7-4.6,1.4-6.5,1.4c-2.7,0-3.7-1.5-4-4
				c-2.1,2.3-4.9,4.4-8.1,4.4c-4.1,0-6.4-3.5-6.4-7.3c0-1,0.1-1.9,0.4-2.8L219.9,30.7z M211.3,36.4c-0.3,0.8-0.4,1.7-0.4,2.6
				c0,2.7,1.5,5.1,4.5,5.1c1.7,0,3.5-1.2,4.6-2.4V32L211.3,36.4z"/>
			<path class="st0" d="M229.5,23.3c-1.2-2.9-1.4-3.5-4.6-4v-1h13.3v1c-4.9,0.3-3.6,3.2-2.3,6.5l6.3,16.3l4-11.5
				c2.9-8.3,3.4-10.6-1.3-11.2v-1H256v1c-2.8,0.3-3.7,1.5-4.9,3.9l-2.7,6.2l-10.2,25.3c-2.4,6-4,7.9-6.6,7.9c-1.7,0-3.1-1.4-3.1-3.2
				c0-1.3,0.8-2.6,2.1-3c0.6,0.4,2.6,1.8,3.4,1.8c1.4,0,2.8-3.8,3.2-4.8l2.2-5L229.5,23.3z"/>
			<path class="st0" d="M249,46.2c-1.4,0-2.5-1.1-2.5-2.6c0-1.4,1.1-2.6,2.5-2.6c1.5,0,2.5,1.1,2.5,2.6
				C251.5,45,250.4,46.2,249,46.2z M249,46.6c1.6,0,2.9-1.3,2.9-2.9c0-1.7-1.3-3-2.9-3c-1.6,0-2.9,1.3-2.9,3
				C246.1,45.2,247.4,46.6,249,46.6z M249.4,43.6c0.5,0,0.9-0.4,0.9-0.9c0-0.7-0.5-0.9-1.4-0.9h-1.4V42c0.2,0,0.4,0,0.4,0.2v2.7
				c0,0.2-0.2,0.3-0.4,0.2v0.2h1.4v-0.2c-0.2,0-0.4,0-0.4-0.2v-1.2c0.7-0.1,0.8,0.3,1,0.8c0.3,0.7,0.3,0.8,0.9,0.8h0.2v-0.2
				c-0.3,0-0.4-0.1-0.6-0.7C249.9,43.9,249.7,43.6,249.4,43.6L249.4,43.6z M248.6,43.5v-1.1c0-0.4,0.1-0.4,0.4-0.4
				c0.6,0,0.8,0.3,0.8,0.7c0,0.7-0.5,0.8-1.1,0.8H248.6z"/>
		</g>
	</g>
	<path class="st0" d="M24.7,19.2C11.4,23.4,4,23.8,2.7,20.5c-0.1-0.2-0.1-0.4-0.1-0.7c-1.4,3-1.9,6.2-1.4,9.4
		c1.5,10.7,13.7,18,28.1,17.6l0-27.6H24.7z"/>
	<path class="st0" d="M8.4,18.4c0.9,2.5,5.2,2.8,13.4,0.8h-4.4l2.2-4.5h9.7V3.2c-0.4,0-0.8,0.1-1.2,0.1C8.9,8.3,7.2,15.1,8.4,18.4z"
		/>
	<path class="st0" d="M56.5,11.8C51.7,6.3,43.4,3,34,2.9l0,11.7C44.6,11.6,53.2,10.4,56.5,11.8z"/>
	<path class="st0" d="M60.8,20.6c-0.4-2.4-1.3-4.7-2.6-6.8c0,3.7-9,9.3-24.1,15.1l0,5.9v11.6c0,0,0,0,0.1,0
		C50.5,44,62.5,32.4,60.8,20.6z"/>
	<path class="st0" d="M52.3,15.1c-0.8-2.2-7.1-2.1-15.5-0.4H45l-2.2,4.5H34l0,8.8C46.8,22.9,53.4,18.2,52.3,15.1z"/>
</g>
</svg>
